<svg width="24" height="25" viewBox="0 0 24 25" fill="none" xmlns="http://www.w3.org/2000/svg">
<path d="M12.1401 15.2701V13.31C12.1401 10.79 14.1801 8.74005 16.7101 8.74005H18.6701" stroke="#4B5563" stroke-width="1.5" stroke-linecap="round" stroke-linejoin="round"/>
<path d="M5.62012 8.75006H7.58014C10.1001 8.75006 12.1501 10.79 12.1501 13.32V13.9701V17.45" stroke="#4B5563" stroke-width="1.5" stroke-linecap="round" stroke-linejoin="round"/>
<path d="M7.14032 6.95001L5.34033 8.75001L7.14032 10.55" stroke="#4B5563" stroke-width="1.5" stroke-linecap="round" stroke-linejoin="round"/>
<path d="M16.8599 6.95001L18.6599 8.75001L16.8599 10.55" stroke="#4B5563" stroke-width="1.5" stroke-linecap="round" stroke-linejoin="round"/>
<path d="M9 22.2H15C20 22.2 22 20.2 22 15.2V9.20001C22 4.20001 20 2.20001 15 2.20001H9C4 2.20001 2 4.20001 2 9.20001V15.2C2 20.2 4 22.2 9 22.2Z" stroke="#4B5563" stroke-width="1.5" stroke-linecap="round" stroke-linejoin="round"/>
</svg>
