<svg width="17" height="17" viewBox="0 0 17 17" fill="none" xmlns="http://www.w3.org/2000/svg">
<g clip-path="url(#clip0_298_10808)">
<path d="M12.6807 8.33205L8.90872 4.41205C8.81282 4.30539 8.69028 4.25205 8.5411 4.25205C8.39193 4.25205 8.26939 4.30272 8.17349 4.40405C8.07759 4.50539 8.02964 4.62805 8.02964 4.77205C8.02964 4.91605 8.07759 5.04139 8.17349 5.14805L11.0984 8.18805H0.853197C0.714677 8.18805 0.594803 8.23872 0.493576 8.34005C0.392349 8.44139 0.341736 8.56405 0.341736 8.70805C0.341736 8.85205 0.392349 8.97739 0.493576 9.08405C0.594803 9.19072 0.714677 9.24405 0.853197 9.24405H11.0984L8.17349 12.2681C8.07759 12.3747 8.02964 12.5001 8.02964 12.6441C8.02964 12.7881 8.08026 12.9134 8.18148 13.0201C8.28271 13.1267 8.40258 13.1801 8.5411 13.1801C8.67963 13.1801 8.80216 13.1267 8.90872 13.0201L12.6807 9.08405C12.7873 8.97739 12.8406 8.85739 12.8406 8.72405C12.8406 8.59072 12.7873 8.46005 12.6807 8.33205Z" fill="#3D3D3D"/>
</g>
<defs>
<clipPath id="clip0_298_10808">
<rect width="16" height="16" fill="white" transform="matrix(1 0 0 -1 0.333313 16.4441)"/>
</clipPath>
</defs>
</svg>
