<svg width="14" height="15" viewBox="0 0 14 15" fill="none" xmlns="http://www.w3.org/2000/svg">
<path d="M2.32686 8.99603L1.4402 8.10937C1.07853 7.7477 1.07853 7.1527 1.4402 6.79103L2.32686 5.90436C2.47852 5.75269 2.60102 5.45519 2.60102 5.24519V3.99101C2.60102 3.47768 3.02102 3.05769 3.53436 3.05769H4.78852C4.99852 3.05769 5.29602 2.93521 5.44769 2.78354L6.33436 1.89686C6.69602 1.53519 7.29102 1.53519 7.65269 1.89686L8.53936 2.78354C8.69102 2.93521 8.98852 3.05769 9.19852 3.05769H10.4527C10.966 3.05769 11.386 3.47768 11.386 3.99101V5.24519C11.386 5.45519 11.5085 5.75269 11.6602 5.90436L12.5469 6.79103C12.9085 7.1527 12.9085 7.7477 12.5469 8.10937L11.6602 8.99603C11.5085 9.1477 11.386 9.4452 11.386 9.6552V10.9093C11.386 11.4226 10.966 11.8427 10.4527 11.8427H9.19852C8.98852 11.8427 8.69102 11.9652 8.53936 12.1169L7.65269 13.0035C7.29102 13.3652 6.69602 13.3652 6.33436 13.0035L5.44769 12.1169C5.29602 11.9652 4.99852 11.8427 4.78852 11.8427H3.53436C3.02102 11.8427 2.60102 11.4226 2.60102 10.9093V9.6552C2.60102 9.43937 2.47852 9.14187 2.32686 8.99603Z" stroke="#4B5563" stroke-width="0.875" stroke-linecap="round" stroke-linejoin="round"/>
<path d="M5.25 9.19409L8.75 5.69409" stroke="#4B5563" stroke-width="0.875" stroke-linecap="round" stroke-linejoin="round"/>
<path d="M8.45512 8.90247H8.46037" stroke="#4B5563" stroke-width="1.16667" stroke-linecap="round" stroke-linejoin="round"/>
<path d="M5.53847 5.98572H5.54371" stroke="#4B5563" stroke-width="1.16667" stroke-linecap="round" stroke-linejoin="round"/>
</svg>
