<svg width="25" height="25" viewBox="0 0 25 25" fill="none" xmlns="http://www.w3.org/2000/svg">
<path d="M22.2664 15.222C22.2664 19.092 19.1364 22.222 15.2664 22.222L16.3164 20.472" stroke="#111827" stroke-width="1.5" stroke-linecap="round" stroke-linejoin="round"/>
<path d="M2.26645 9.22205C2.26645 5.35205 5.39645 2.22205 9.26645 2.22205L8.21645 3.97205" stroke="#111827" stroke-width="1.5" stroke-linecap="round" stroke-linejoin="round"/>
<path d="M13.9665 4.672L17.9464 6.97199L21.8864 4.68201" stroke="#111827" stroke-width="1.5" stroke-linecap="round" stroke-linejoin="round"/>
<path d="M17.9464 11.042V6.96204" stroke="#111827" stroke-width="1.5" stroke-linecap="round" stroke-linejoin="round"/>
<path d="M17.0065 2.43205L14.6065 3.76201C14.0665 4.06201 13.6165 4.822 13.6165 5.442V7.98204C13.6165 8.60204 14.0565 9.36203 14.6065 9.66203L17.0065 10.992C17.5165 11.282 18.3565 11.282 18.8765 10.992L21.2765 9.66203C21.8165 9.36203 22.2665 8.60204 22.2665 7.98204V5.442C22.2665 4.822 21.8265 4.06201 21.2765 3.76201L18.8765 2.43205C18.3665 2.15205 17.5265 2.15205 17.0065 2.43205Z" stroke="#111827" stroke-width="1.5" stroke-linecap="round" stroke-linejoin="round"/>
<path d="M2.61642 15.6721L6.58642 17.972L10.5364 15.6821" stroke="#111827" stroke-width="1.5" stroke-linecap="round" stroke-linejoin="round"/>
<path d="M6.5864 22.042V17.962" stroke="#111827" stroke-width="1.5" stroke-linecap="round" stroke-linejoin="round"/>
<path d="M5.65645 13.432L3.25646 14.762C2.71646 15.062 2.26645 15.8219 2.26645 16.4419V18.982C2.26645 19.602 2.70646 20.362 3.25646 20.662L5.65645 21.992C6.16645 22.282 7.00644 22.282 7.52644 21.992L9.92645 20.662C10.4664 20.362 10.9164 19.602 10.9164 18.982V16.4419C10.9164 15.8219 10.4764 15.062 9.92645 14.762L7.52644 13.432C7.00644 13.152 6.16645 13.152 5.65645 13.432Z" stroke="#111827" stroke-width="1.5" stroke-linecap="round" stroke-linejoin="round"/>
</svg>
