<svg width="30" height="28" viewBox="0 0 30 28" fill="none" xmlns="http://www.w3.org/2000/svg">
<path d="M12.0733 18.2151C12.0733 18.1356 12.113 18.0675 12.1925 18.0107L16.1777 13.9914L12.1925 9.9892C12.113 9.92108 12.0733 9.8416 12.0733 9.75077C12.0733 9.65994 12.113 9.58046 12.1925 9.51234L12.7034 9.00141C12.7602 8.94464 12.8283 8.91626 12.9078 8.91626C12.9873 8.91626 13.0667 8.94464 13.1462 9.00141L17.8978 13.77C17.9659 13.8268 18 13.9006 18 13.9914C18 14.0823 17.9659 14.1618 17.8978 14.2299L13.1462 18.9644C13.0894 19.0439 13.01 19.0837 12.9078 19.0837C12.8056 19.0837 12.7375 19.0439 12.7034 18.9644L12.1925 18.4535C12.113 18.3967 12.0733 18.3173 12.0733 18.2151Z" fill="#4B5563"/>
</svg>
