<svg width="7" height="12" viewBox="0 0 7 12" fill="none" xmlns="http://www.w3.org/2000/svg">
<path d="M6.07321 1.78479C6.07321 1.86427 6.03347 1.93239 5.95399 1.98916L1.96878 6.00844L5.95399 10.0107C6.03347 10.0788 6.07321 10.1583 6.07321 10.2491C6.07321 10.3399 6.03347 10.4194 5.95399 10.4875L5.44307 10.9985C5.3863 11.0552 5.31817 11.0836 5.2387 11.0836C5.15922 11.0836 5.07974 11.0552 5.00027 10.9985L0.248669 6.22984C0.180546 6.17307 0.146484 6.09927 0.146484 6.00844C0.146484 5.9176 0.180546 5.83813 0.248669 5.77L5.00027 1.03544C5.05704 0.955961 5.13651 0.916223 5.2387 0.916223C5.34088 0.916223 5.40901 0.955961 5.44307 1.03544L5.95399 1.54636C6.03347 1.60313 6.07321 1.68261 6.07321 1.78479Z" fill="#4B5563"/>
</svg>
