<svg width="25" height="25" viewBox="0 0 25 25" fill="none" xmlns="http://www.w3.org/2000/svg">
<path d="M10.2993 13.972C10.2993 14.942 11.0493 15.722 11.9693 15.722H13.8493C14.6493 15.722 15.2993 15.042 15.2993 14.192C15.2993 13.282 14.8993 12.952 14.3093 12.742L11.2993 11.692C10.7093 11.482 10.3093 11.162 10.3093 10.242C10.3093 9.40204 10.9593 8.71204 11.7593 8.71204H13.6393C14.5593 8.71204 15.3093 9.49204 15.3093 10.462" stroke="#111827" stroke-width="1.5" stroke-linecap="round" stroke-linejoin="round"/>
<path d="M12.7993 7.72205V16.722" stroke="#111827" stroke-width="1.5" stroke-linecap="round" stroke-linejoin="round"/>
<path d="M22.7993 12.222C22.7993 17.742 18.3193 22.222 12.7993 22.222C7.27932 22.222 2.79932 17.742 2.79932 12.222C2.79932 6.70205 7.27932 2.22205 12.7993 2.22205" stroke="#111827" stroke-width="1.5" stroke-linecap="round" stroke-linejoin="round"/>
<path d="M17.7993 3.22205V7.22205H21.7993" stroke="#111827" stroke-width="1.5" stroke-linecap="round" stroke-linejoin="round"/>
<path d="M22.7993 2.22205L17.7993 7.22205" stroke="#111827" stroke-width="1.5" stroke-linecap="round" stroke-linejoin="round"/>
</svg>
