<svg width="25" height="25" viewBox="0 0 25 25" fill="none" xmlns="http://www.w3.org/2000/svg">
<path d="M12.5329 22.222C18.0557 22.222 22.5329 17.7448 22.5329 12.222C22.5329 6.6992 18.0557 2.22205 12.5329 2.22205C7.01005 2.22205 2.5329 6.6992 2.5329 12.222C2.5329 17.7448 7.01005 22.222 12.5329 22.222Z" stroke="#111827" stroke-width="1.5" stroke-linecap="round" stroke-linejoin="round"/>
<path d="M8.53287 3.22205H9.53287C7.58287 9.06205 7.58287 15.382 9.53287 21.222H8.53287" stroke="#111827" stroke-width="1.5" stroke-linecap="round" stroke-linejoin="round"/>
<path d="M15.5329 3.22205C17.4829 9.06205 17.4829 15.382 15.5329 21.222" stroke="#111827" stroke-width="1.5" stroke-linecap="round" stroke-linejoin="round"/>
<path d="M3.5329 16.222V15.222C9.3729 17.172 15.6929 17.172 21.5329 15.222V16.222" stroke="#111827" stroke-width="1.5" stroke-linecap="round" stroke-linejoin="round"/>
<path d="M3.5329 9.22214C9.3729 7.27214 15.6929 7.27214 21.5329 9.22214" stroke="#111827" stroke-width="1.5" stroke-linecap="round" stroke-linejoin="round"/>
</svg>
